<mxfile host="app.diagrams.net" modified="2023-12-06T18:06:10.632Z" agent="Mozilla/5.0 (X11; Ubuntu; Linux x86_64; rv:109.0) Gecko/20100101 Firefox/119.0" etag="lx_V__0HsQdN1j4leVCA" version="22.1.5" type="device">
  <diagram name="Page-1" id="0xHUr7whVXhtEaNVSrXn">
    <mxGraphModel dx="1074" dy="725" grid="1" gridSize="10" guides="1" tooltips="1" connect="1" arrows="1" fold="1" page="1" pageScale="1" pageWidth="850" pageHeight="1100" math="0" shadow="0">
      <root>
        <mxCell id="0" />
        <mxCell id="1" parent="0" />
        <mxCell id="K6yWCftTm4GcKfn3RR__-15" value="" style="edgeStyle=orthogonalEdgeStyle;rounded=0;orthogonalLoop=1;jettySize=auto;html=1;" parent="1" source="K6yWCftTm4GcKfn3RR__-3" target="K6yWCftTm4GcKfn3RR__-4" edge="1">
          <mxGeometry relative="1" as="geometry" />
        </mxCell>
        <mxCell id="K6yWCftTm4GcKfn3RR__-3" value="Тачпад" style="rounded=0;whiteSpace=wrap;html=1;" parent="1" vertex="1">
          <mxGeometry x="130" y="150" width="120" height="60" as="geometry" />
        </mxCell>
        <mxCell id="K6yWCftTm4GcKfn3RR__-18" style="edgeStyle=orthogonalEdgeStyle;rounded=0;orthogonalLoop=1;jettySize=auto;html=1;exitX=0.5;exitY=1;exitDx=0;exitDy=0;entryX=0;entryY=0.5;entryDx=0;entryDy=0;" parent="1" source="K6yWCftTm4GcKfn3RR__-4" target="K6yWCftTm4GcKfn3RR__-8" edge="1">
          <mxGeometry relative="1" as="geometry" />
        </mxCell>
        <mxCell id="K6yWCftTm4GcKfn3RR__-21" style="edgeStyle=orthogonalEdgeStyle;rounded=0;orthogonalLoop=1;jettySize=auto;html=1;exitX=1;exitY=0.5;exitDx=0;exitDy=0;" parent="1" source="K6yWCftTm4GcKfn3RR__-4" target="K6yWCftTm4GcKfn3RR__-5" edge="1">
          <mxGeometry relative="1" as="geometry" />
        </mxCell>
        <mxCell id="K6yWCftTm4GcKfn3RR__-4" value="Контролер" style="rounded=0;whiteSpace=wrap;html=1;" parent="1" vertex="1">
          <mxGeometry x="130" y="299" width="120" height="60" as="geometry" />
        </mxCell>
        <mxCell id="K6yWCftTm4GcKfn3RR__-22" style="edgeStyle=orthogonalEdgeStyle;rounded=0;orthogonalLoop=1;jettySize=auto;html=1;exitX=0.25;exitY=0;exitDx=0;exitDy=0;entryX=0.75;entryY=1;entryDx=0;entryDy=0;" parent="1" source="K6yWCftTm4GcKfn3RR__-5" target="K6yWCftTm4GcKfn3RR__-6" edge="1">
          <mxGeometry relative="1" as="geometry" />
        </mxCell>
        <mxCell id="K6yWCftTm4GcKfn3RR__-23" style="edgeStyle=orthogonalEdgeStyle;rounded=0;orthogonalLoop=1;jettySize=auto;html=1;exitX=0.75;exitY=0;exitDx=0;exitDy=0;entryX=0.25;entryY=1;entryDx=0;entryDy=0;" parent="1" source="K6yWCftTm4GcKfn3RR__-5" target="K6yWCftTm4GcKfn3RR__-7" edge="1">
          <mxGeometry relative="1" as="geometry" />
        </mxCell>
        <mxCell id="K6yWCftTm4GcKfn3RR__-24" style="edgeStyle=orthogonalEdgeStyle;rounded=0;orthogonalLoop=1;jettySize=auto;html=1;exitX=1;exitY=0.5;exitDx=0;exitDy=0;entryX=0;entryY=0.5;entryDx=0;entryDy=0;" parent="1" source="K6yWCftTm4GcKfn3RR__-5" target="K6yWCftTm4GcKfn3RR__-10" edge="1">
          <mxGeometry relative="1" as="geometry" />
        </mxCell>
        <mxCell id="K6yWCftTm4GcKfn3RR__-5" value="Загружаемый модуль" style="rounded=0;whiteSpace=wrap;html=1;" parent="1" vertex="1">
          <mxGeometry x="430" y="299" width="210" height="60" as="geometry" />
        </mxCell>
        <mxCell id="K6yWCftTm4GcKfn3RR__-36" style="edgeStyle=orthogonalEdgeStyle;rounded=0;orthogonalLoop=1;jettySize=auto;html=1;exitX=0.75;exitY=1;exitDx=0;exitDy=0;entryX=0.25;entryY=0;entryDx=0;entryDy=0;" parent="1" source="K6yWCftTm4GcKfn3RR__-6" target="K6yWCftTm4GcKfn3RR__-5" edge="1">
          <mxGeometry relative="1" as="geometry" />
        </mxCell>
        <mxCell id="K6yWCftTm4GcKfn3RR__-6" value="Буфер координат" style="rounded=0;whiteSpace=wrap;html=1;" parent="1" vertex="1">
          <mxGeometry x="392" y="110" width="120" height="60" as="geometry" />
        </mxCell>
        <mxCell id="K6yWCftTm4GcKfn3RR__-35" style="edgeStyle=orthogonalEdgeStyle;rounded=0;orthogonalLoop=1;jettySize=auto;html=1;exitX=0.25;exitY=1;exitDx=0;exitDy=0;entryX=0.75;entryY=0;entryDx=0;entryDy=0;" parent="1" source="K6yWCftTm4GcKfn3RR__-7" target="K6yWCftTm4GcKfn3RR__-5" edge="1">
          <mxGeometry relative="1" as="geometry" />
        </mxCell>
        <mxCell id="K6yWCftTm4GcKfn3RR__-7" value="/proc/ файл" style="rounded=0;whiteSpace=wrap;html=1;" parent="1" vertex="1">
          <mxGeometry x="557" y="110" width="120" height="60" as="geometry" />
        </mxCell>
        <mxCell id="K6yWCftTm4GcKfn3RR__-19" style="edgeStyle=orthogonalEdgeStyle;rounded=0;orthogonalLoop=1;jettySize=auto;html=1;exitX=1;exitY=0.5;exitDx=0;exitDy=0;" parent="1" source="K6yWCftTm4GcKfn3RR__-8" target="K6yWCftTm4GcKfn3RR__-9" edge="1">
          <mxGeometry relative="1" as="geometry" />
        </mxCell>
        <mxCell id="K6yWCftTm4GcKfn3RR__-20" style="edgeStyle=orthogonalEdgeStyle;rounded=0;orthogonalLoop=1;jettySize=auto;html=1;exitX=0.5;exitY=0;exitDx=0;exitDy=0;entryX=0.25;entryY=1;entryDx=0;entryDy=0;" parent="1" source="K6yWCftTm4GcKfn3RR__-8" target="K6yWCftTm4GcKfn3RR__-5" edge="1">
          <mxGeometry relative="1" as="geometry" />
        </mxCell>
        <mxCell id="K6yWCftTm4GcKfn3RR__-8" value="Буфер нажатых кнопок" style="rounded=0;whiteSpace=wrap;html=1;" parent="1" vertex="1">
          <mxGeometry x="393" y="440" width="180" height="60" as="geometry" />
        </mxCell>
        <mxCell id="K6yWCftTm4GcKfn3RR__-9" value="Другие драйвера" style="rounded=0;whiteSpace=wrap;html=1;" parent="1" vertex="1">
          <mxGeometry x="622" y="440" width="120" height="60" as="geometry" />
        </mxCell>
        <mxCell id="K6yWCftTm4GcKfn3RR__-25" style="edgeStyle=orthogonalEdgeStyle;rounded=0;orthogonalLoop=1;jettySize=auto;html=1;exitX=1;exitY=0.5;exitDx=0;exitDy=0;" parent="1" source="K6yWCftTm4GcKfn3RR__-10" target="K6yWCftTm4GcKfn3RR__-13" edge="1">
          <mxGeometry relative="1" as="geometry" />
        </mxCell>
        <mxCell id="K6yWCftTm4GcKfn3RR__-10" value="Планировщик" style="rounded=0;whiteSpace=wrap;html=1;" parent="1" vertex="1">
          <mxGeometry x="690" y="299" width="120" height="60" as="geometry" />
        </mxCell>
        <mxCell id="K6yWCftTm4GcKfn3RR__-27" style="edgeStyle=orthogonalEdgeStyle;rounded=0;orthogonalLoop=1;jettySize=auto;html=1;exitX=0;exitY=0.5;exitDx=0;exitDy=0;entryX=1;entryY=0.5;entryDx=0;entryDy=0;" parent="1" source="K6yWCftTm4GcKfn3RR__-11" target="K6yWCftTm4GcKfn3RR__-7" edge="1">
          <mxGeometry relative="1" as="geometry" />
        </mxCell>
        <mxCell id="K6yWCftTm4GcKfn3RR__-11" value="Скрипт инициализации" style="rounded=0;whiteSpace=wrap;html=1;" parent="1" vertex="1">
          <mxGeometry x="930" y="110" width="150" height="60" as="geometry" />
        </mxCell>
        <mxCell id="K6yWCftTm4GcKfn3RR__-26" style="edgeStyle=orthogonalEdgeStyle;rounded=0;orthogonalLoop=1;jettySize=auto;html=1;exitX=0.5;exitY=0;exitDx=0;exitDy=0;entryX=0.5;entryY=1;entryDx=0;entryDy=0;" parent="1" source="K6yWCftTm4GcKfn3RR__-12" target="K6yWCftTm4GcKfn3RR__-11" edge="1">
          <mxGeometry relative="1" as="geometry" />
        </mxCell>
        <mxCell id="K6yWCftTm4GcKfn3RR__-12" value="Файл конфигурации" style="rounded=0;whiteSpace=wrap;html=1;" parent="1" vertex="1">
          <mxGeometry x="930" y="200" width="150" height="60" as="geometry" />
        </mxCell>
        <mxCell id="K6yWCftTm4GcKfn3RR__-13" value="Исполнение команды" style="rhombus;whiteSpace=wrap;html=1;" parent="1" vertex="1">
          <mxGeometry x="930" y="289" width="150" height="80" as="geometry" />
        </mxCell>
        <mxCell id="K6yWCftTm4GcKfn3RR__-28" value="&lt;div&gt;Аппаратный уровень&lt;/div&gt;" style="text;html=1;align=center;verticalAlign=middle;resizable=0;points=[];autosize=1;strokeColor=none;fillColor=none;" parent="1" vertex="1">
          <mxGeometry x="140" y="50" width="140" height="30" as="geometry" />
        </mxCell>
        <mxCell id="K6yWCftTm4GcKfn3RR__-29" value="&lt;div&gt;Пространство ядра&lt;/div&gt;" style="text;html=1;align=center;verticalAlign=middle;resizable=0;points=[];autosize=1;strokeColor=none;fillColor=none;" parent="1" vertex="1">
          <mxGeometry x="535" y="50" width="130" height="30" as="geometry" />
        </mxCell>
        <mxCell id="K6yWCftTm4GcKfn3RR__-30" value="Пространство пользователя" style="text;html=1;align=center;verticalAlign=middle;resizable=0;points=[];autosize=1;strokeColor=none;fillColor=none;" parent="1" vertex="1">
          <mxGeometry x="911" y="50" width="180" height="30" as="geometry" />
        </mxCell>
        <mxCell id="Jezrd3iWf-ZKwnu0oWVS-1" value="" style="endArrow=none;dashed=1;html=1;dashPattern=1 3;strokeWidth=2;rounded=0;" edge="1" parent="1">
          <mxGeometry width="50" height="50" relative="1" as="geometry">
            <mxPoint x="340" y="520" as="sourcePoint" />
            <mxPoint x="340" y="50" as="targetPoint" />
          </mxGeometry>
        </mxCell>
        <mxCell id="Jezrd3iWf-ZKwnu0oWVS-2" value="" style="endArrow=none;dashed=1;html=1;dashPattern=1 3;strokeWidth=2;rounded=0;" edge="1" parent="1">
          <mxGeometry width="50" height="50" relative="1" as="geometry">
            <mxPoint x="849" y="520" as="sourcePoint" />
            <mxPoint x="849" y="50" as="targetPoint" />
          </mxGeometry>
        </mxCell>
      </root>
    </mxGraphModel>
  </diagram>
</mxfile>
